<svg width="1366" height="768" viewBox="0 0 1366 768" fill="none" xmlns="http://www.w3.org/2000/svg">
<g clip-path="url(#clip0_137_25)">
<rect width="1366" height="768" fill="white"/>
<path d="M686.092 480.711H551.438L551.003 635.224C550.948 646.914 548.531 658.477 543.891 669.235C539.252 679.994 532.485 689.733 523.984 697.883C515.483 706.033 505.42 712.431 494.383 716.702C483.345 720.974 471.555 723.034 459.701 722.761C436.29 721.869 414.149 712.03 397.966 695.327C381.783 678.624 372.828 656.367 372.996 633.268V589.81C423.751 587.806 506.102 574.21 506.102 481.998V289.179C506.092 277.431 503.703 265.803 499.075 254.977C494.448 244.152 487.674 234.346 479.153 226.135C470.631 217.924 460.532 211.473 449.448 207.161C438.365 202.848 426.519 200.761 414.607 201.022C391.042 201.841 368.729 211.688 352.412 228.471C336.095 245.253 327.058 267.648 327.224 290.896V545.063H280.63V492.303C280.579 454.119 265.155 417.517 237.747 390.539C210.339 363.561 173.189 348.414 134.46 348.427H133.977C98.4403 348.603 64.4152 362.622 39.3186 387.429C14.222 412.235 0.0889357 445.817 0 480.854H45.5781C45.6162 457.711 54.9377 435.523 71.5082 419.132C88.0786 402.741 110.553 393.478 134.025 393.364C147.855 393.25 161.556 395.983 174.253 401.388C186.951 406.793 198.364 414.751 207.763 424.754C225.403 443.623 235.091 468.407 234.858 494.068V545.254H160.153C145.209 545.271 130.417 548.219 116.64 553.928C102.864 559.636 90.3767 567.991 79.9069 578.504C69.4372 589.017 61.1939 601.48 55.6574 615.165C50.1209 628.851 47.4018 643.486 47.6586 658.217C48.5424 687.512 61.0124 715.305 82.4037 735.655C103.795 756.006 132.411 767.301 162.136 767.126H168.039C182.816 767.126 197.449 764.255 211.1 758.678C224.752 753.102 237.155 744.928 247.602 734.624C258.048 724.319 266.334 712.087 271.984 698.625C277.635 685.163 280.54 670.735 280.533 656.166V590.144H327.128V633.077C327.128 705.826 385.624 766.649 459.411 767.937C477.261 768.221 494.991 765.008 511.572 758.484C528.152 751.96 543.254 742.254 556.001 729.931C568.748 717.607 578.886 702.911 585.827 686.694C592.768 670.478 596.374 653.064 596.436 635.462L596.726 525.743H685.899V480.949L686.092 480.711ZM372.899 290.324C372.795 279.003 377.123 268.078 384.982 259.824C392.84 251.569 403.625 246.62 415.091 246.007C420.97 245.808 426.831 246.778 432.323 248.857C437.815 250.937 442.827 254.084 447.061 258.111C451.295 262.139 454.665 266.964 456.969 272.302C459.273 277.639 460.466 283.378 460.475 289.179V481.998C460.475 518.444 445.476 540.913 372.996 544.634L372.899 290.324ZM234.858 656.071C234.865 664.726 233.141 673.298 229.786 681.296C226.431 689.294 221.51 696.563 215.305 702.685C209.099 708.808 201.731 713.664 193.621 716.978C185.511 720.292 176.818 721.998 168.039 721.998H161.701C144.094 722.199 127.1 715.633 114.32 703.692C101.54 691.75 93.9777 675.371 93.2369 658.026C92.9849 649.213 94.526 640.439 97.7691 632.222C101.012 624.006 105.892 616.513 112.12 610.185C118.348 603.858 125.798 598.825 134.031 595.383C142.264 591.941 151.113 590.159 160.056 590.144H234.762L234.858 656.071Z" fill="#1B3BF2"/>
<path d="M619.322 459.434C628.422 459.434 637.319 456.773 644.886 451.788C652.452 446.803 658.35 439.718 661.833 431.429C665.315 423.139 666.227 414.017 664.451 405.217C662.676 396.417 658.293 388.333 651.858 381.989C645.423 375.644 637.224 371.323 628.299 369.573C619.373 367.822 610.121 368.721 601.713 372.154C593.305 375.588 586.119 381.403 581.063 388.863C576.007 396.324 573.308 405.095 573.308 414.068C573.302 420.027 574.488 425.929 576.798 431.436C579.108 436.943 582.497 441.947 586.771 446.161C591.045 450.374 596.12 453.716 601.706 455.994C607.291 458.271 613.277 459.44 619.322 459.434V459.434Z" fill="#1B3BF2"/>
<path d="M1232 378.574C1256.38 378.455 1279.73 368.834 1296.95 351.795C1313.35 335.579 1322.92 313.897 1323.85 291.085L1362.44 291.085C1361.46 323.909 1347.82 355.194 1324.22 378.521C1299.78 402.676 1266.64 416.337 1232.02 416.511L1231.54 416.511L1231.54 416.511C1193.72 416.524 1157.46 401.733 1130.71 375.405C1103.96 349.079 1088.92 313.371 1088.87 276.131L1088.87 223.375L1088.87 219.875L1085.37 219.875L1038.78 219.875L1035.28 219.875L1035.28 223.375L1035.28 477.542L1035.28 477.555L1035.28 477.567C1035.44 499.888 1026.76 521.4 1011.08 537.528C995.401 553.652 973.956 563.125 951.294 563.918C939.848 564.165 928.468 562.159 917.821 558.016C907.167 553.871 897.462 547.671 889.276 539.783C881.089 531.895 874.586 522.478 870.143 512.085C865.7 501.693 863.408 490.532 863.398 479.257L863.398 286.44C863.398 263.925 868.419 246.423 876.564 232.767C884.713 219.107 896.104 209.099 909.136 201.756C935.313 187.005 967.89 183.123 993.142 182.126L996.504 181.993L996.504 178.629L996.504 135.183C996.676 111.164 987.362 88.0307 970.548 70.6762C953.732 53.3202 930.737 43.1059 906.432 42.1803L906.406 42.1792L906.379 42.1787C894.067 41.8953 881.82 44.0344 870.354 48.472C858.888 52.9096 848.43 59.5574 839.594 68.0292C830.758 76.5011 823.72 86.6273 818.895 97.8174C814.069 109.008 811.554 121.036 811.497 133.198L811.497 133.205L811.072 284.228L683.601 284.228L683.601 246.195L769.274 246.195L772.765 246.195L772.774 242.705L773.064 132.988C773.124 115.857 776.634 98.9074 783.391 83.1214C790.148 67.3352 800.018 53.0258 812.432 41.0243C824.846 29.0227 839.556 19.5681 855.71 13.2118C871.864 6.85543 889.14 3.72451 906.534 4.00155C978.383 5.25869 1035.37 64.4976 1035.37 135.361L1035.37 178.295L1035.37 181.795L1038.87 181.795L1085.47 181.795L1088.97 181.795L1088.97 178.295L1088.97 112.273L1088.97 112.271C1088.96 98.1685 1091.77 84.2018 1097.24 71.1684C1102.71 58.1348 1110.74 46.2882 1120.86 36.3069C1130.98 26.3254 1142.99 18.4049 1156.22 13.0002C1169.45 7.59532 1183.64 4.81291 1197.96 4.81291L1203.86 4.81291L1203.87 4.81291L1203.88 4.81285C1232.71 4.64324 1260.45 15.5973 1281.18 35.3193C1301.91 55.0345 1313.98 81.9469 1314.84 110.305C1315.09 124.557 1312.46 138.717 1307.1 151.961C1301.74 165.211 1293.76 177.281 1283.61 187.465C1273.47 197.649 1261.37 205.745 1248.02 211.277C1234.67 216.81 1220.33 219.668 1205.84 219.684L1131.14 219.684L1127.64 219.684L1127.64 223.184L1127.64 274.355C1127.4 300.914 1137.43 326.558 1155.68 346.075L1155.69 346.082C1165.42 356.44 1177.23 364.678 1190.38 370.271C1203.51 375.865 1217.69 378.692 1232 378.574ZM1232 378.574C1232 378.574 1231.99 378.574 1231.99 378.574L1231.98 375.076L1232 378.574C1232 378.574 1232 378.574 1232 378.574ZM951.027 525.93L951.062 525.929L951.096 525.927C963.447 525.266 975.074 519.935 983.553 511.028C992.031 502.124 996.709 490.33 996.601 478.099C996.601 478.094 996.601 478.088 996.601 478.083L996.504 223.803L996.503 220.12L992.824 220.309C956.414 222.178 933.568 228.764 919.848 240.158C905.872 251.764 902.025 267.769 902.025 286.44L902.025 479.26L902.025 479.266C902.035 485.542 903.325 491.752 905.818 497.524C908.31 503.297 911.953 508.513 916.526 512.863C921.1 517.214 926.512 520.611 932.438 522.855C938.364 525.098 944.686 526.144 951.027 525.93ZM1127.64 112.371L1127.64 112.373L1127.74 178.3L1127.74 181.795L1131.24 181.795L1205.94 181.795L1205.95 181.795C1215.35 181.779 1224.66 179.906 1233.32 176.285C1241.98 172.664 1249.82 167.369 1256.37 160.708C1262.93 154.048 1268.07 146.157 1271.49 137.501C1274.9 128.845 1276.53 119.6 1276.26 110.312L1276.26 110.287L1276.26 110.263C1275.48 91.9936 1267.51 74.7524 1254.07 62.1896C1240.63 49.6332 1222.77 42.735 1204.28 42.941L1197.96 42.941C1188.73 42.941 1179.59 44.7346 1171.06 48.2204C1162.52 51.7062 1154.77 56.8167 1148.24 63.2621C1141.7 69.7076 1136.52 77.3617 1132.99 85.7886C1129.45 94.2156 1127.64 103.248 1127.64 112.371Z" stroke="#1B3BF2" stroke-width="7"/>
<path d="M789.192 354.367L789.192 354.371C789.192 362.64 786.705 370.728 782.04 377.612C777.374 384.496 770.738 389.869 762.964 393.044C755.189 396.219 746.632 397.05 738.375 395.431C730.119 393.812 722.541 389.817 716.599 383.958C710.657 378.099 706.616 370.641 704.979 362.529C703.343 354.418 704.183 346.01 707.394 338.366C710.606 330.721 716.048 324.179 723.04 319.573C730.033 314.966 738.259 312.504 746.678 312.504L746.678 309.004L746.682 312.504C752.273 312.499 757.809 313.58 762.973 315.686C768.137 317.792 772.825 320.879 776.772 324.77C780.718 328.661 783.844 333.278 785.975 338.356C788.105 343.434 789.198 348.875 789.192 354.367Z" stroke="#1B3BF2" stroke-width="7"/>
</g>
<defs>
<clipPath id="clip0_137_25">
<rect width="1366" height="768" fill="white"/>
</clipPath>
</defs>
</svg>
