<svg width="1366" height="768" viewBox="0 0 1366 768" fill="none" xmlns="http://www.w3.org/2000/svg">
<g clip-path="url(#clip0_140_2)">
<rect width="1366" height="768" transform="translate(1366 768) rotate(-180)" fill="white"/>
<path d="M679.908 287.289L814.562 287.289L814.997 132.776C815.052 121.086 817.469 109.523 822.109 98.7647C826.748 88.0061 833.516 78.2672 842.016 70.117C850.517 61.9669 860.58 55.569 871.617 51.2975C882.655 47.0259 894.445 44.9664 906.299 45.2391C929.71 46.1308 951.851 55.9697 968.034 72.673C984.217 89.3764 993.172 111.633 993.004 134.732L993.004 178.19C942.249 180.194 859.898 193.79 859.898 286.001L859.898 478.821C859.908 490.569 862.297 502.197 866.925 513.023C871.552 523.848 878.326 533.654 886.847 541.865C895.369 550.076 905.468 556.527 916.552 560.839C927.635 565.152 939.481 567.239 951.393 566.978C974.958 566.159 997.271 556.312 1013.59 539.529C1029.91 522.747 1038.94 500.352 1038.78 477.104L1038.78 222.937L1085.37 222.937L1085.37 275.697C1085.42 313.881 1100.85 350.483 1128.25 377.461C1155.66 404.439 1192.81 419.585 1231.54 419.573L1232.02 419.573C1267.56 419.397 1301.58 405.378 1326.68 380.571C1351.78 355.765 1365.91 322.183 1366 287.146L1320.42 287.146C1320.38 310.289 1311.06 332.477 1294.49 348.868C1277.92 365.259 1255.45 374.522 1231.98 374.636C1218.15 374.75 1204.44 372.017 1191.75 366.612C1179.05 361.207 1167.64 353.249 1158.24 343.246C1140.6 324.377 1130.91 299.593 1131.14 273.932L1131.14 222.746L1205.85 222.746C1220.79 222.729 1235.58 219.781 1249.36 214.072C1263.14 208.364 1275.62 200.009 1286.09 189.496C1296.56 178.983 1304.81 166.52 1310.34 152.835C1315.88 139.149 1318.6 124.514 1318.34 109.783C1317.46 80.4877 1304.99 52.6955 1283.6 32.3449C1262.21 11.9943 1233.59 0.699415 1203.86 0.874291L1197.96 0.87429C1183.18 0.874288 1168.55 3.74466 1154.9 9.32149C1141.25 14.8983 1128.84 23.0723 1118.4 33.3765C1107.95 43.6806 1099.67 55.9132 1094.02 69.3752C1088.37 82.8371 1085.46 97.2648 1085.47 111.834L1085.47 177.856L1038.87 177.856L1038.87 134.923C1038.87 62.174 980.376 1.35139 906.589 0.0633774C888.739 -0.220929 871.009 2.9921 854.428 9.51625C837.848 16.0404 822.746 25.7459 809.999 38.0694C797.252 50.3928 787.114 65.089 780.173 81.3055C773.232 97.5221 769.626 114.936 769.564 132.537L769.274 242.257L680.101 242.257L680.101 287.051L679.908 287.289ZM993.101 477.676C993.205 488.997 988.877 499.922 981.018 508.176C973.16 516.431 962.375 521.38 950.909 521.993C945.03 522.192 939.169 521.222 933.677 519.143C928.185 517.063 923.173 513.916 918.939 509.889C914.705 505.861 911.335 501.035 909.031 495.698C906.727 490.361 905.534 484.622 905.525 478.821L905.525 286.001C905.525 249.556 920.524 227.087 993.004 223.366L993.101 477.676ZM1131.14 111.929C1131.14 103.274 1132.86 94.7022 1136.21 86.7039C1139.57 78.7055 1144.49 71.4374 1150.7 65.3149C1156.9 59.1924 1164.27 54.3355 1172.38 51.0218C1180.49 47.708 1189.18 46.0024 1197.96 46.0024L1204.3 46.0024C1221.91 45.8011 1238.9 52.3668 1251.68 64.3084C1264.46 76.25 1272.02 92.6288 1272.76 109.974C1273.02 118.787 1271.47 127.561 1268.23 135.778C1264.99 143.994 1260.11 151.487 1253.88 157.815C1247.65 164.142 1240.2 169.175 1231.97 172.617C1223.74 176.059 1214.89 177.841 1205.94 177.856L1131.24 177.856L1131.14 111.929Z" fill="#1B3BF2"/>
<path d="M746.678 308.566C737.578 308.566 728.681 311.227 721.114 316.212C713.548 321.197 707.65 328.282 704.167 336.571C700.685 344.861 699.773 353.983 701.549 362.783C703.324 371.583 707.707 379.667 714.142 386.011C720.577 392.356 728.776 396.677 737.701 398.427C746.627 400.178 755.879 399.279 764.287 395.846C772.695 392.412 779.881 386.597 784.937 379.137C789.993 371.676 792.692 362.905 792.692 353.932C792.698 347.973 791.512 342.071 789.202 336.564C786.892 331.057 783.503 326.053 779.229 321.839C774.955 317.626 769.88 314.284 764.294 312.006C758.709 309.729 752.723 308.56 746.678 308.566V308.566Z" fill="#1B3BF2"/>
<path d="M134.001 389.426C109.623 389.545 86.2718 399.166 69.0468 416.205C52.6534 432.421 43.0757 454.103 42.1517 476.915L3.55713 476.915C4.54409 444.09 18.1797 412.805 41.779 389.479C66.2174 365.324 99.3597 351.662 133.985 351.488L134.46 351.488L134.462 351.488C172.278 351.476 208.544 366.267 235.291 392.595C262.037 418.921 277.08 454.628 277.13 491.869L277.13 544.625L277.13 548.125L280.63 548.125L327.224 548.125L330.724 548.125L330.724 544.625L330.724 290.457L330.724 290.445L330.724 290.432C330.565 268.112 339.24 246.6 354.921 230.472C370.599 214.347 392.044 204.875 414.706 204.082C426.152 203.835 437.532 205.841 448.179 209.984C458.833 214.129 468.538 220.329 476.724 228.217C484.911 236.105 491.414 245.522 495.857 255.915C500.3 266.307 502.592 277.468 502.602 288.743L502.602 481.56C502.602 504.075 497.581 521.577 489.436 535.233C481.287 548.893 469.896 558.901 456.864 566.244C430.687 580.995 398.11 584.877 372.858 585.874L369.496 586.006L369.496 589.371L369.496 632.817C369.324 656.836 378.638 679.969 395.452 697.324C412.268 714.68 435.263 724.894 459.568 725.82L459.594 725.821L459.62 725.821C471.933 726.105 484.18 723.965 495.646 719.528C507.112 715.09 517.57 708.443 526.406 699.971C535.242 691.499 542.28 681.373 547.105 670.183C551.931 658.992 554.446 646.964 554.502 634.802L554.503 634.795L554.928 483.772L682.399 483.772L682.399 521.805L596.726 521.805L593.235 521.805L593.226 525.295L592.936 635.012C592.876 652.143 589.366 669.092 582.609 684.879C575.852 700.665 565.982 714.974 553.568 726.976C541.154 738.977 526.444 748.432 510.29 754.788C494.136 761.144 476.86 764.275 459.466 763.998C387.617 762.741 330.627 703.502 330.627 632.639L330.627 589.705L330.627 586.205L327.127 586.205L280.533 586.205L277.033 586.205L277.033 589.705L277.033 655.727L277.033 655.729C277.039 669.831 274.228 683.798 268.757 696.832C263.286 709.865 255.263 721.712 245.144 731.693C235.024 741.674 223.007 749.595 209.776 755C196.546 760.405 182.363 763.187 168.039 763.187L162.136 763.187L162.126 763.187L162.116 763.187C133.289 763.357 105.547 752.403 84.816 732.681C64.0925 712.965 52.019 686.053 51.1576 657.695C50.9122 643.442 53.5442 629.282 58.9019 616.039C64.2623 602.789 72.2449 590.719 82.3869 580.535C92.529 570.351 104.628 562.255 117.98 556.723C131.333 551.19 145.67 548.332 160.156 548.315L234.858 548.315L238.358 548.315L238.358 544.815L238.358 493.645C238.595 467.085 228.565 441.442 210.32 421.925L210.314 421.918C200.581 411.56 188.765 403.322 175.624 397.729C162.485 392.135 148.309 389.308 134.001 389.426ZM134.001 389.426C134.003 389.426 134.006 389.426 134.008 389.426L134.025 392.924L133.996 389.426C133.998 389.426 133.999 389.426 134.001 389.426ZM414.973 242.07L414.938 242.071L414.904 242.073C402.553 242.734 390.926 248.065 382.447 256.972C373.969 265.876 369.291 277.669 369.399 289.901C369.399 289.906 369.399 289.912 369.399 289.917L369.496 544.197L369.497 547.88L373.176 547.691C409.586 545.821 432.432 539.236 446.152 527.842C460.128 516.236 463.975 500.231 463.975 481.56L463.975 288.74L463.975 288.734C463.965 282.457 462.675 276.248 460.182 270.476C457.69 264.703 454.047 259.487 449.474 255.137C444.9 250.786 439.488 247.389 433.562 245.145C427.636 242.902 421.314 241.856 414.973 242.07ZM238.358 655.629L238.358 655.627L238.261 589.7L238.256 586.205L234.761 586.205L160.056 586.205L160.05 586.205C150.647 586.221 141.341 588.094 132.681 591.715C124.021 595.336 116.181 600.631 109.625 607.291C103.069 613.952 97.9301 621.842 94.5134 630.499C91.0968 639.155 89.4727 648.4 89.7382 657.688L89.7389 657.712L89.74 657.737C90.5203 676.006 98.4852 693.247 111.93 705.81C125.369 718.367 143.226 725.265 161.719 725.059L168.039 725.059C177.271 725.059 186.414 723.265 194.945 719.78C203.476 716.294 211.23 711.183 217.763 704.738C224.295 698.292 229.479 690.638 233.013 682.211C236.548 673.784 238.365 664.751 238.358 655.629Z" stroke="#1B3BF2" stroke-width="7"/>
<path d="M576.808 413.633L576.808 413.629C576.808 405.36 579.295 397.272 583.96 390.388C588.626 383.504 595.262 378.131 603.036 374.956C610.811 371.781 619.368 370.95 627.625 372.569C635.881 374.188 643.459 378.183 649.401 384.042C655.343 389.901 659.384 397.359 661.02 405.471C662.657 413.582 661.817 421.99 658.606 429.634C655.394 437.279 649.952 443.821 642.96 448.427C635.967 453.034 627.741 455.495 619.322 455.495L619.322 458.995L619.318 455.495C613.727 455.501 608.191 454.42 603.027 452.314C597.863 450.208 593.175 447.121 589.228 443.23C585.282 439.339 582.155 434.722 580.025 429.644C577.895 424.566 576.802 419.125 576.808 413.633Z" stroke="#1B3BF2" stroke-width="7"/>
</g>
<defs>
<clipPath id="clip0_140_2">
<rect width="1366" height="768" fill="white" transform="translate(1366 768) rotate(-180)"/>
</clipPath>
</defs>
</svg>
